<svg version="1.2" xmlns="http://www.w3.org/2000/svg" viewBox="0 0 520 520" width="500" height="500"><style>.a{fill:#49d2f2}.b{fill:#00b5e8}.c{fill:#17a0dd}.d{fill:#017dc0}.e{fill:#fff}.f{opacity:.5;fill:#fff}</style><path class="a" d="m117.2 510.2c-19.8 0-35.9-16.1-35.9-35.9v-44.7c0-6.8 5.5-12.4 12.3-12.4h47.2c6.8 0 12.3 5.6 12.3 12.4v8.8h142.6c19.3 0 37.4-7.7 50.9-21.5 13.5-13.9 20.7-32.1 20.3-51.5-1-38.3-33.6-69.5-72.8-69.5h-90.9c-19.8 0-35.9-16.1-35.9-35.9 0-19.8 16.1-35.9 35.9-35.9h92.5c19.3 0 37.4-7.6 50.9-21.5 13.6-13.8 20.8-32.1 20.3-51.5-0.9-38.3-33.5-69.5-72.7-69.5h-141.1v8.8c0 6.8-5.5 12.3-12.3 12.3h-47.2c-6.8 0-12.3-5.5-12.3-12.3v-44.7c0-19.8 16.1-35.9 35.9-35.9h176.6c79.1 0 144.2 63.6 144.9 141.7 0.4 41.8-17.2 80.9-48.4 108.5 31.2 27.6 48.8 66.7 48.4 108.5-0.7 78.1-65.8 141.7-144.9 141.7z"/><path class="b" d="m381.5 260c31.7-25.4 51.9-64.6 51.5-108.5-0.7-75.6-63.6-136-139.2-136h-176.6c-16.7 0-30.2 13.5-30.2 30.2v44.7c0 3.7 3 6.6 6.6 6.6h47.2c3.6 0 6.6-2.9 6.6-6.6v-14.5h146.8c42.1 0 77.4 33.1 78.4 75.1 1 43.3-33.9 78.8-76.9 78.8h-92.5c-16.7 0-30.2 13.5-30.2 30.2 0 16.7 13.5 30.2 30.2 30.2h90.9c42.1 0 77.5 33.1 78.5 75.1 1 43.3-33.9 78.8-76.9 78.8h-148.3v-14.5c0-3.7-3-6.7-6.6-6.7h-47.2c-3.6 0-6.6 3-6.6 6.7v44.7c0 16.7 13.5 30.2 30.2 30.2h176.6c75.6 0 138.5-60.4 139.2-136 0.4-43.9-19.8-83.1-51.5-108.5z"/><path class="c" d="m117.2 403c-19.8 0-35.9-16.1-35.9-35.9v-214.2c0-19.8 16.1-35.9 35.9-35.9h178.3c19.5 0 35.9 15.5 36.5 34.6 0.4 9.8-3.2 19.1-10 26.2-6.8 7.1-16 11-25.8 11h-143.1v142.4h143.1c9.8 0 19 3.9 25.8 11 6.8 7.1 10.4 16.4 10 26.2-0.6 19.1-17 34.6-36.5 34.6z"/><path class="d" d="m295.5 397.3h-178.3c-16.7 0-30.2-13.5-30.2-30.2v-214.2c0-16.7 13.5-30.2 30.2-30.2h178.3c16.3 0 30.3 12.7 30.8 29.1 0.6 17.1-13.1 31.2-30.1 31.2h-148.8v154h148.8c17 0 30.7 14.1 30.1 31.2-0.5 16.4-14.5 29.1-30.8 29.1z"/><g style="mix-blend-mode:overlay"><path class="e" d="m137.8 91.3v-16.6h3.9v16.6z"/><path class="e" d="m354.7 425q1.3-1.3 2.5-2.7-2.9 3.8-6.4 7.2c-15.6 16-36.6 24.8-58.9 24.8h-154.1v-21.1h-45.1v-4.5h49v21.1h154c22.3 0 43.3-8.8 59-24.8z"/><path class="e" d="m295.7 235.5c22.3 0 43.3-8.8 59-24.8q1.2-1.3 2.4-2.6-2.9 3.7-6.2 7.2c-15.7 16-36.7 24.8-59 24.8h-92.5c-6.5 0-12.4 2.5-16.7 6.6 4.3-6.7 11.9-11.2 20.5-11.2z"/><path class="e" d="m113.4 25.8c-6.5 0-12.3 2.5-16.7 6.6 4.4-6.7 11.9-11.1 20.5-11.1h176.8c72.8 0 132.6 58.4 133.3 130.3 0.3 32.6-11.2 63.4-32.2 87.4 18.5-23.3 28.6-52.3 28.4-82.9-0.7-71.8-60.5-130.3-133.4-130.3z"/><path class="e" d="m427.3 368.4c-0.3 32.4-12.6 62.1-32.7 84.9 17.8-22.2 28.6-50.1 28.9-80.4 0.3-40.5-17.7-78.4-49.4-103.9l-5.6-4.5 4.7-3.8 4.7 3.8c31.7 25.4 49.7 63.3 49.4 103.9z"/><path class="f" d="m313.8 350.2c4.6 4.8 7.1 11.1 6.8 17.8-0.2 6.5-3.1 12.4-7.7 16.7 2.3-3.6 3.8-7.7 3.9-12.1 0.3-6.7-2.2-13.1-6.8-17.9-4.7-4.8-10.9-7.5-17.6-7.5h-154.6v-165.4h3.9v160.9h154.5c6.7 0 12.9 2.6 17.6 7.5z"/><path class="f" d="m291.6 132.9h-178.2c-6.5 0-12.3 2.5-16.7 6.6 4.4-6.7 11.9-11.1 20.5-11.1h178.2c13.5 0 24.8 10.6 25.2 23.6 0.3 6.7-2.2 13-6.8 17.8q-0.5 0.5-0.9 0.9c2.7-4.2 4.1-9.1 3.9-14.2-0.5-13-11.8-23.6-25.2-23.6z"/></g></svg>