<svg version="1.2" xmlns="http://www.w3.org/2000/svg" viewBox="0 0 230 230" width="32" height="32"><style>.a{fill:#0073e6}.b{fill:#ff4500}</style><path class="a" d="m193.1 210c-31.8-0.5-62.8 0.7-93.4-2.1-39.8-3.6-71.8-38.6-77.8-80.7-5.5-38.3 15.7-79 51.9-95.7-21.2 26.6-14.2 55.8-14.7 83.7-0.4 32.8 24.4 56.7 57.4 56.9 27.9 0.3 55.9 0.4 83.9-0.1 8.1-0.1 10.9 2.4 10.3 10.5-0.6 8.5-0.1 17.1-0.1 27.5-6 0-11.2 0-17.5 0z"/><path class="b" d="m193 60.3c15.9 22.1 19.2 46.4 17.1 72.9-33.1 0-65.7 0.4-98.2-0.2-9.1-0.2-14.7-7.1-15.6-16.5-0.5-6-0.1-12.1-0.1-19.3 24.3 0 48.2 0 72.2 0-3.3-26.9-29.8-40.3-73.4-37.4 0-11-0.4-22 0.4-32.8 0.2-2.1 5.5-5 8.6-5.3 36.5-3.9 66.1 8.8 89 38.6z"/></svg>