<svg version="1.2" xmlns="http://www.w3.org/2000/svg" viewBox="0 0 520 520" width="512" height="512"><style>.a{fill:#fff}.b{fill:#006dff}.c{fill:#2482ff}.d{fill:#00aeef}</style><path fill-rule="evenodd" class="a" d="m260 520c-143.8 0-260-116.2-260-260 0-143.8 116.2-260 260-260 143.8 0 260 116.2 260 260 0 143.8-116.2 260-260 260z"/><path class="b" d="m200.9 290.9c0 15.3-0.3 30.6-0.1 45.9 0.1 7.5 6.8 13.2 14.9 13.3 13 0.2 26 0.2 39 0.1 21.9 0 43.9-0.2 65.9-0.3 28.4-0.1 53.8 20.4 59.6 48.3 0.8 4.1 0.8 8.2 1.3 13.1-2.3 0-4 0-5.7 0-59.5 0-119-0.1-178.6 0-22.7 0-46.6-17.9-53.5-38.8-2.6-7.6-3.8-15.9-4.1-24-0.6-17.9-0.4-35.8-0.2-53.7 0-2.3 0.8-5.1 2.3-6.6 19.4-19.5 38.9-38.8 58.7-57.8 0.4 20.5 0.5 40.5 0.5 60.5z"/><path class="c" d="m201.3 290.9c-0.4-20-0.5-40-0.6-60.4 1.5-0.5 2.9-0.7 4.3-0.7q85.8 0 171.6 0c1.3 0 2.5 0 4 0 1.4 6.3 0.1 12.1-1.6 17.9-7.4 25.2-31.4 43.1-57.7 43.1-39.9 0.1-79.7 0.1-120 0.1z"/><path class="d" d="m222.4 170.9c-26.3 0-52.2 0.1-78 0.1-5.3 0-5.5-0.5-4.8-5.8 2-15.1 7.3-28.5 18.6-39 11.2-10.5 24.2-16.7 39.7-16.8q88.6-0.3 177.2-0.6c2 0 3.9 0.4 6.2 0.7-0.4 24.3-11.4 41.9-31.9 53.7-10 5.8-21 7.8-32.5 7.7-31.4-0.1-62.7 0-94.5 0z"/></svg>