<svg xmlns="http://www.w3.org/2000/svg" width="512" height="512"><svg xmlns="http://www.w3.org/2000/svg" version="1.2" viewBox="0 0 197 197" width="512" height="512"><path d="M176.1 193c-31.8-.5-62.8.7-93.4-2.1-39.8-3.6-71.8-38.6-77.8-80.7-5.5-38.3 15.7-79 51.9-95.7-21.2 26.6-14.2 55.8-14.7 83.7-.4 32.8 24.4 56.7 57.4 56.9 27.9.3 55.9.4 83.9-.1 8.1-.1 10.9 2.4 10.3 10.5-.6 8.5-.1 17.1-.1 27.5z" style="fill:#0073e6"/><path d="M176 43.3c15.9 22.1 19.2 46.4 17.1 72.9-33.1 0-65.7.4-98.2-.2-9.1-.2-14.7-7.1-15.6-16.5-.5-6-.1-12.1-.1-19.3h72.2c-3.3-26.9-29.8-40.3-73.4-37.4 0-11-.4-22 .4-32.8.2-2.1 5.5-5 8.6-5.3 36.5-3.9 66.1 8.8 89 38.6" style="fill:#ff4500"/></svg></svg>
